HIERARCHY
ROOT Hips
{
  OFFSET -23.2767 103.177 16.4624
  CHANNELS 6 Xposition Yposition Zposition Zrotation Xrotation Yrotation
  JOINT ToSpine
  {
    OFFSET -2.69724 7.43032 -0.144315
    CHANNELS 3 Zrotation Xrotation Yrotation
    JOINT Spine
    {
      OFFSET -0.0310711 10.7595 1.96963
      CHANNELS 3 Zrotation Xrotation Yrotation
      JOINT Spine1
      {
        OFFSET 19.9056 3.91189 0.764692
        CHANNELS 3 Zrotation Xrotation Yrotation
        JOINT Neck
        {
          OFFSET 25.9749 7.03908 -0.130764
          CHANNELS 3 Zrotation Xrotation Yrotation
          JOINT Head
          {
            OFFSET 9.52751 0.295786 -0.907742
            CHANNELS 3 Zrotation Xrotation Yrotation
            End Site
            {
              OFFSET 16.4037 0.713936 2.7358
            }
          }
        }
        JOINT LeftShoulder
        {
          OFFSET 17.7449 4.33886 11.7777
          CHANNELS 3 Zrotation Xrotation Yrotation
          JOINT LeftArm
          {
            OFFSET 0.911315 1.27913 9.80584
            CHANNELS 3 Zrotation Xrotation Yrotation
            JOINT LeftForeArm
            {
              OFFSET 28.6126 1.18197 -3.53199
              CHANNELS 3 Zrotation Xrotation Yrotation
              JOINT LeftHand
              {
                OFFSET 27.5088 0.0218783 0.327423
                CHANNELS 3 Zrotation Xrotation Yrotation
                End Site
                {
                  OFFSET 18.6038 -0.000155887 0.382096
                }
              }
            }
          }
        }
        JOINT RightShoulder
        {
          OFFSET 17.1009 2.89543 -12.2328
          CHANNELS 3 Zrotation Xrotation Yrotation
          JOINT RightArm
          {
            OFFSET 1.4228 0.178766 -10.211
            CHANNELS 3 Zrotation Xrotation Yrotation
            JOINT RightForeArm
            {
              OFFSET 28.733 1.87905 2.64907
              CHANNELS 3 Zrotation Xrotation Yrotation
              JOINT RightHand
              {
                OFFSET 27.4588 0.290562 -0.101845
                CHANNELS 3 Zrotation Xrotation Yrotation
                End Site
                {
                  OFFSET 17.8396 -0.255518 -0.000602873
                }
              }
            }
          }
        }
      }
    }
  }
  JOINT LeftUpLeg
  {
    OFFSET -5.61296 -2.22332 -10.2353
    CHANNELS 3 Zrotation Xrotation Yrotation
    JOINT LeftLeg
    {
      OFFSET 2.56703 -44.7417 -7.93097
      CHANNELS 3 Zrotation Xrotation Yrotation
      JOINT LeftFoot
      {
        OFFSET 3.16933 -46.5642 -3.96578
        CHANNELS 3 Zrotation Xrotation Yrotation
        JOINT LeftToeBase
        {
          OFFSET 0.346054 -6.02161 12.8035
          CHANNELS 3 Zrotation Xrotation Yrotation
          End Site
          {
            OFFSET 0.134235 -1.35082 5.13018
          }
        }
      }
    }
  }
  JOINT RightUpLeg
  {
    OFFSET -5.7928 -1.72406 10.6446
    CHANNELS 3 Zrotation Xrotation Yrotation
    JOINT RightLeg
    {
      OFFSET -2.57161 -44.7178 -7.85259
      CHANNELS 3 Zrotation Xrotation Yrotation
      JOINT RightFoot
      {
        OFFSET -3.10148 -46.5936 -4.03391
        CHANNELS 3 Zrotation Xrotation Yrotation
        JOINT RightToeBase
        {
          OFFSET -0.0828122 -6.13587 12.8035
          CHANNELS 3 Zrotation Xrotation Yrotation
          End Site
          {
            OFFSET -0.131328 -1.35082 5.13018
          }
        }
      }
    }
  }
}
MOTION
Frames:	15
Frame Time:	0.0333333
-247.196 103.531 222.591 67.2632 42.5223 19.0567 -70.1915 0 88.8779 73.3982 70.4606 14.47 4.52986 19.5643 4.7686 -161.094 28.4219 -165.31 137.498 58.9779 -121.108 2.11586 -4.05358 -30.505 -97.9275 52.4822 -90.2333 -8.93743 52.043 0.690375 4.47357 -0.114146 -1.22521 0.344519 -1.10721 44.6377 -72.4197 -37.0042 96.0396 -3.60609 -4.29101 15.2181 21.2925 -1.7591 -9.98873 -59.6212 0.111929 95.4154 3.52122 15.4114 -3.28422 7.30143 6.73858 -0.933254 -9.52193 -24.9504 5.29298 -59.7825 6.79118 83.3031 -1.48452 17.044 -1.0002 -5.11305 -2.7641 0.863959 0.15015 2.41711 1.71312 
-247.204 103.531 222.663 66.8779 42.3599 19.487 -70.1915 0 88.8779 72.6285 70.3348 15.4123 4.4914 19.4604 4.94514 -160.187 27.8965 -165.84 141.081 59.6604 -123.72 2.14001 -4.07005 -31.0086 -97.7302 51.9949 -90.3303 -8.8118 51.291 0.365823 4.17209 -0.107885 -1.26356 0.307237 -0.985693 44.4364 -72.5833 -37.0706 95.9104 -3.55404 -4.60554 15.1665 20.7072 -1.64963 -9.66002 -58.9983 0.451463 95.5675 3.42414 15.8895 -3.46445 7.32572 6.56431 -0.939053 -9.52331 -24.9487 5.28526 -59.5138 7.04723 83.4622 -1.44761 16.8208 -1.19334 -5.17377 -2.59266 0.865399 0.147087 2.38394 1.69813 
-247.219 103.531 222.592 66.9911 42.5579 19.2459 -70.1915 0 88.8779 72.4669 70.3234 15.242 4.61451 19.4245 5.06794 -157.84 27.8301 -169.009 147.271 61.5692 -128.903 2.14775 -3.99242 -30.8796 -97.8579 52.1819 -90.3558 -8.56325 50.4467 0.028139 3.33263 -0.0818387 -1.13418 0.317079 -1.01902 44.372 -72.0035 -37.1856 96.3904 -3.84446 -3.34438 15.2897 21.1507 -1.56112 -8.96967 -59.4127 0.0790862 95.3756 3.49484 15.4028 -3.32789 7.30269 6.78011 -0.933117 -9.52624 -24.945 5.26893 -59.5988 6.76285 83.3219 -1.48361 17.014 -1.0876 -5.12595 -2.71282 0.863853 0.142281 2.32682 1.66924 
-247.258 103.519 222.637 66.6223 42.4984 19.2916 -70.1915 0 88.8779 72.8023 70.4161 14.3889 3.97073 19.3434 5.63852 -157.474 27.1845 -170.732 153.054 62.758 -135.019 2.22257 -3.68449 -31.1658 -97.573 51.8035 -90.554 -8.06987 50.1667 -0.708036 2.15498 -0.0491557 -0.982208 0.202682 -0.639659 45.0326 -70.7526 -36.7087 96.1698 -3.40046 -2.03905 16.1846 20.2206 -1.41712 -8.55597 -59.133 -0.198936 95.1307 3.48778 15.3292 -3.00591 7.28826 6.87177 -0.929738 -9.52783 -24.9419 5.25481 -59.0304 6.52274 83.2653 -1.51372 17.4856 -0.984636 -5.12861 -2.86996 0.86831 0.137296 2.2703 1.6419 
-247.274 103.52 222.642 66.5575 42.5671 19.3807 -70.1915 0 88.8779 72.4806 70.3788 14.5959 3.96406 19.2707 5.86552 -155.136 26.8397 -172.763 159.41 63.5349 -139.781 2.20987 -3.83035 -31.4376 -97.6548 51.536 -90.4316 -7.65022 49.315 -1.31077 1.10938 -0.0209616 -0.703434 0.191741 -0.604395 45.1508 -71.3853 -36.5634 95.7544 -3.30824 -2.5842 16.0806 19.375 -1.24675 -7.90435 -59.0437 -0.179291 95.1258 3.48559 15.4137 -3.0925 7.28897 6.85191 -0.93004 -9.52891 -24.9395 5.24366 -59.0518 6.48627 83.1945 -1.43141 17.3857 -1.00431 -5.18139 -2.81099 0.871885 0.134357 2.22893 1.61728 
-247.279 103.519 222.614 66.6516 42.5112 19.2693 -70.1915 0 88.8779 72.295 70.4106 14.7931 4.14324 19.3193 5.84203 -153.563 26.3905 -174.714 165.95 64.1479 -145.438 2.21981 -3.77036 -31.4071 -97.7271 51.6136 -90.4968 -7.30673 49.0536 -1.72498 0.0543786 0.00224965 -0.443414 0.202183 -0.638179 45.0878 -71.1143 -36.5416 95.9109 -3.16049 -2.40324 16.2888 18.6985 -1.14626 -7.56162 -59.2042 -0.227884 95.1339 3.49262 15.238 -3.00594 7.27711 6.91396 -0.927367 -9.53107 -24.9358 5.22649 -59.1209 6.45984 83.2023 -1.45149 17.3653 -0.895487 -5.18844 -2.78774 0.871964 0.130915 2.17982 1.5876 
-247.28 103.518 222.622 66.6812 42.4806 19.2299 -70.1915 0 88.8779 72.3845 70.5757 14.5188 3.88711 19.3921 6.15451 -151.07 25.9764 -176.973 173.011 64.4898 -150.941 2.20159 -3.91971 -31.6012 -97.7675 51.4419 -90.4555 -7.23495 48.7574 -1.85757 -0.468091 0.0120421 -0.373907 0.226622 -0.717805 45.1523 -71.3655 -36.4721 95.625 -3.12056 -2.51997 16.2845 18.4058 -1.1016 -7.39743 -59.1525 -0.206645 95.1505 3.46435 15.3652 -2.97106 7.27931 6.8555 -0.928281 -9.53376 -24.938 5.21653 -59.0928 6.45995 83.2046 -1.46425 17.4312 -0.859314 -5.20169 -2.80272 0.873649 0.128182 2.14733 1.57079 
-247.283 103.517 222.617 66.7054 42.5469 19.2326 -70.1915 0 88.8779 72.4596 70.5754 14.3973 3.89714 19.3566 6.22476 -149.534 25.4446 -178.635 178.984 64.4687 -156.29 2.22278 -3.81826 -31.6244 -97.7043 51.43 -90.6293 -7.18151 48.6312 -1.94461 -0.901478 0.0192202 -0.223339 0.228769 -0.724789 44.9457 -70.7459 -36.5994 95.9368 -3.07455 -1.99918 16.5138 18.1958 -1.07289 -7.29755 -59.2118 -0.27554 95.0868 3.56148 15.31 -2.98649 7.22567 6.88176 -0.918441 -9.53045 -24.9269 5.20809 -59.126 6.46442 83.2169 -1.47267 17.4489 -0.927558 -5.19933 -2.82367 0.873965 0.129529 2.14709 1.56193 
-247.303 103.517 222.622 66.5663 42.6232 19.3674 -70.1915 0 88.8779 72.5485 70.5495 14.3282 3.57877 19.3533 6.1591 -147.02 24.7971 178.881 -173.671 64.1884 -162.615 2.17487 -4.0275 -31.499 -97.881 51.3826 -90.302 -7.20435 48.871 -1.84205 -1.01591 0.0213268 -0.250594 0.21026 -0.664655 45.1764 -71.3389 -36.5452 95.446 -3.21442 -2.3327 16.2598 18.1636 -1.04985 -7.16166 -59.0449 -0.269873 95.0634 3.55347 15.4375 -3.06635 7.23996 6.83874 -0.921396 -9.52557 -24.9101 5.1967 -59.0378 6.45061 83.2017 -1.44825 17.4582 -1.02451 -5.21199 -2.81982 0.875098 0.128833 2.12792 1.54908 
-247.267 103.517 222.597 66.6582 42.5516 19.3128 -70.1915 0 88.8779 72.3771 70.5717 14.5562 3.62733 19.4041 6.11519 -145.72 24.1205 177.316 -167.878 63.5948 -168.228 2.18406 -4.01006 -31.6046 -97.8371 51.2255 -90.3572 -7.32144 49.1055 -1.67457 -0.931963 0.0207518 -0.41619 0.229781 -0.728082 45.112 -71.6238 -36.5698 95.3415 -3.271 -2.58801 16.1131 18.1228 -1.05276 -7.19655 -59.1228 -0.159691 95.1841 3.47806 15.4397 -3.09336 7.26815 6.80374 -0.926749 -9.52932 -24.9158 5.18766 -59.1539 6.49796 83.2155 -1.44307 17.361 -0.952867 -5.22947 -2.78114 0.875804 0.126958 2.10828 1.5373 
-247.272 103.516 222.6 66.5437 42.6743 19.433 -70.1915 0 88.8779 72.628 70.5619 14.2329 3.37266 19.3472 6.22017 -144.324 23.3428 175.854 -162.876 62.7178 -172.953 2.17596 -4.05324 -31.6114 -97.8627 51.1575 -90.2861 -7.50103 49.5487 -1.40483 -0.675927 0.0165729 -0.614789 0.238601 -0.756747 45.1589 -71.3949 -36.6225 95.2187 -3.16812 -2.26737 16.3174 18.1307 -1.06064 -7.24445 -59.0056 -0.196787 95.1148 3.52001 15.5409 -3.17343 7.25867 6.76971 -0.925364 -9.52603 -24.9054 5.17985 -59.093 6.46557 83.1729 -1.40754 17.3988 -1.07172 -5.2368 -2.8068 0.877182 0.125871 2.10561 1.54143 
-247.248 103.516 222.598 66.7131 42.6802 19.2661 -70.1915 0 88.8779 72.7917 70.6332 13.9328 3.37792 19.3708 6.31091 -143.541 22.5342 174.732 -158.927 61.6778 -177.143 2.18774 -3.97281 -31.5388 -97.9839 51.2808 -90.2824 -7.72543 50.182 -1.01024 -0.308773 0.00903704 -0.867122 0.249918 -0.793893 44.9914 -71.6464 -36.7269 95.2149 -3.23524 -2.52542 16.1678 18.15 -1.05656 -7.21037 -59.2296 -0.190805 95.1891 3.46269 15.3851 -3.1774 7.2785 6.81339 -0.92851 -9.52086 -24.8887 5.16887 -59.2089 6.44973 83.1686 -1.44692 17.436 -1.00764 -5.22226 -2.8253 0.876243 0.123466 2.08495 1.53492 
-247.227 103.516 222.589 66.6617 42.6247 19.2862 -70.1915 0 88.8779 72.2397 70.6572 14.4255 3.44874 19.4037 6.46035 -142.864 21.7083 173.621 -155.277 60.4907 178.732 2.16942 -4.12195 -31.7405 -98.0127 51.104 -90.2038 -7.77222 50.1744 -0.971467 -0.254019 0.0077341 -0.966011 0.25482 -0.809801 45.032 -71.1904 -36.6063 95.2736 -3.15251 -2.076 16.4008 18.0773 -1.06896 -7.31976 -59.2315 -0.248461 95.1096 3.53927 15.3031 -3.06771 7.23309 6.83974 -0.920159 -9.52606 -24.8957 5.15559 -59.1677 6.45151 83.1726 -1.4418 17.4257 -0.964907 -5.22785 -2.80442 0.876247 0.119945 2.04791 1.51812 
-247.216 103.515 222.585 66.7344 42.6175 19.2284 -70.1915 0 88.8779 72.3994 70.7138 14.23 3.36245 19.4327 6.51465 -142.587 21.542 173.283 -154.507 60.2464 177.907 2.16272 -4.14018 -31.6826 -98.0936 51.1448 -90.1264 -7.88617 50.2868 -0.811294 -0.269256 0.00620295 -1.07086 0.266868 -0.849913 44.8287 -71.702 -36.7889 95.0779 -3.23072 -2.49778 16.1789 18.1136 -1.0655 -7.28277 -59.236 -0.177078 95.1967 3.45562 15.4153 -3.1005 7.28165 6.76958 -0.929461 -9.52667 -24.893 5.14421 -59.1872 6.4674 83.1822 -1.47048 17.4951 -0.94747 -5.21238 -2.82538 0.875281 0.11664 2.01579 1.50512 
-247.2 103.515 222.559 66.8713 42.5759 19.1407 -70.1915 0 88.8779 72.6188 70.6944 14.1555 3.43602 19.4627 6.26558 -142.508 21.4231 173.171 -154.464 60.1337 177.882 2.16561 -4.08141 -31.5222 -98.1873 51.2072 -90.0188 -7.91434 50.3042 -0.758309 -0.245705 0.00737602 -1.18825 0.25202 -0.801421 44.7173 -71.677 -36.9089 95.1602 -3.24204 -2.60481 16.1458 18.082 -1.05476 -7.22574 -59.3922 -0.138092 95.2551 3.44622 15.3289 -3.0879 7.29155 6.77505 -0.931175 -9.52504 -24.8856 5.13374 -59.3243 6.48708 83.1797 -1.45671 17.425 -0.880828 -5.20906 -2.78461 0.873897 0.111507 1.97991 1.49982 
